HIERARCHY
ROOT root
{
	OFFSET	0	13.1	24.9
	CHANNELS 6  Xposition Yposition Zposition Xrotation Yrotation Zrotation
	JOINT spine_1
	{
		OFFSET	0	9.99999	0
		CHANNELS 3  Xrotation Yrotation Zrotation
		JOINT spine_2
		{
			OFFSET	0	112	-10
			CHANNELS 3  Xrotation Yrotation Zrotation
			JOINT spine_3
			{
				OFFSET	0	206.5	19.3
				CHANNELS 3  Xrotation Yrotation Zrotation
				JOINT spine_4
				{
					OFFSET	0	110.4	14.6
					CHANNELS 3  Xrotation Yrotation Zrotation
					JOINT neck_1
					{
						OFFSET	0	71.8	-50.3
						CHANNELS 3  Xrotation Yrotation Zrotation
						JOINT neck_2
						{
							OFFSET	0	86.2	-25.8
							CHANNELS 3  Xrotation Yrotation Zrotation
							JOINT head_ee
							{
								OFFSET	0	179.8	-8.7
								CHANNELS 3  Xrotation Yrotation Zrotation
								End Site
								{
									OFFSET	1	0	0
								}
							}
						}
					}
					JOINT left_clavicle
					{
						OFFSET	-43.2	22.4	-70.8
						CHANNELS 3  Xrotation Yrotation Zrotation
						JOINT left_shoulder
						{
							OFFSET	-93.9	-5.79999	48.7
							CHANNELS 3  Xrotation Yrotation Zrotation
							JOINT left_elbow
							{
								OFFSET	-291.4	-30.8	15.2
								CHANNELS 3  Xrotation Yrotation Zrotation
								JOINT left_lowarm_twist
								{
									OFFSET	-110.7	-3.89999	13.6
									CHANNELS 3  Xrotation Yrotation Zrotation
									JOINT left_hand
									{
										OFFSET	-110.7	-3.89999	13.6
										CHANNELS 3  Xrotation Yrotation Zrotation
										JOINT left_ee
										{
											OFFSET	-80.8	-5.10001	12.1
											CHANNELS 3  Xrotation Yrotation Zrotation
											End Site
											{
												OFFSET	1	0	0
											}
										}
									}
								}
							}
						}
					}
					JOINT right_clavicle
					{
						OFFSET	43.2	22.4	-70.8
						CHANNELS 3  Xrotation Yrotation Zrotation
						JOINT right_shoulder
						{
							OFFSET	93.9	-5.79999	48.7
							CHANNELS 3  Xrotation Yrotation Zrotation
							JOINT right_elbow
							{
								OFFSET	291.4	-30.8	15.2
								CHANNELS 3  Xrotation Yrotation Zrotation
								JOINT right_lowarm_twist
								{
									OFFSET	110.7	-3.89999	13.6
									CHANNELS 3  Xrotation Yrotation Zrotation
									JOINT right_hand
									{
										OFFSET	110.7	-3.89999	13.6
										CHANNELS 3  Xrotation Yrotation Zrotation
										JOINT right_ee
										{
											OFFSET	80.8	-5.10001	12.1
											CHANNELS 3  Xrotation Yrotation Zrotation
											End Site
											{
												OFFSET	1	0	0
											}
										}
									}
								}
							}
						}
					}
				}
			}
		}
	}
	JOINT left_hip
	{
		OFFSET	-82.8	-127.5	0.300001
		CHANNELS 3  Xrotation Yrotation Zrotation
		JOINT left_knee
		{
			OFFSET	-28.2	-396.7	2.2
			CHANNELS 3  Xrotation Yrotation Zrotation
			JOINT left_ankle
			{
				OFFSET	-11.7	-411.3	35.4
				CHANNELS 3  Xrotation Yrotation Zrotation
				JOINT left_toes
				{
					OFFSET	0	-60	-88.6
					CHANNELS 3  Xrotation Yrotation Zrotation
					JOINT left_foot_ee
					{
						OFFSET	-22.5	-16.5	-42.2
						CHANNELS 3  Xrotation Yrotation Zrotation
						End Site
						{
							OFFSET	1	0	0
						}
					}
				}
			}
		}
	}
	JOINT right_hip
	{
		OFFSET	82.8	-127.5	0.300001
		CHANNELS 3  Xrotation Yrotation Zrotation
		JOINT right_knee
		{
			OFFSET	28.2	-396.7	2.2
			CHANNELS 3  Xrotation Yrotation Zrotation
			JOINT right_ankle
			{
				OFFSET	11.7	-411.3	35.4
				CHANNELS 3  Xrotation Yrotation Zrotation
				JOINT right_toes
				{
					OFFSET	0	-60	-88.6
					CHANNELS 3  Xrotation Yrotation Zrotation
					JOINT right_foot_ee
					{
						OFFSET	22.5	-16.5	-42.2
						CHANNELS 3  Xrotation Yrotation Zrotation
						End Site
						{
							OFFSET	1	0	0
						}
					}
				}
			}
		}
	}
}
MOTION
Frames: 12
Frame Time: 0.02
3177.02 653.055 -1669.29 -12.1391397095 83.9126072125 15.5645402176 0.0345863 0.0963411 0.420113 0.0346817 0.0694133 0.425392 0.0352537 -0.0212793 0.430492 0.0349985 0.0469753 0.42845 -7.16483 8.91883 6.35784 -7.06876 12.0143 8.15437 -0.0 0.0 -0.0 1.33695 23.6056 4.55477 -17.2785 2.78552 73.7821 0.468388 -13.0631 0.0536278 -23.5532 -1.39493 2.64765 -0.392353 11.8783 2.41076 -0.0 0.0 -0.0 11.075 6.73684 -22.1797 15.9803 4.9841 -66.5345 1.33285 33.4333 -0.400312 -25.9143 1.59234 -2.87693 6.40504 -0.191397 -48.6802 0.0 0.0 0.0 28.9432 5.67914 -13.3228 -3.5446 0.129627 0.528454 -4.00495 -24.5573 0.705886 -13.6141 0.0 0.0 -0.0 0.0 -0.0 -18.7834 1.8049 -3.61103 -12.3059 -0.307963 -1.8598 40.2004 -9.84769 4.8929 -7.06719 0.0 0.0 0.0 0.0 0.0 
3177.02 653.055 -1669.29 -12.3665849852 84.0232751873 15.7932517016 0.0345863 0.0963411 0.420113 0.0346817 0.0694133 0.425392 0.0352537 -0.0212793 0.430492 0.0349985 0.0469753 0.42845 -7.16483 8.91883 6.35784 -7.06876 12.0143 8.15437 -0.0 0.0 -0.0 1.33695 23.6056 4.55477 -17.2785 2.78552 73.7821 0.468388 -13.0631 0.0536278 -23.5532 -1.39493 2.64765 -0.392353 11.8783 2.41076 -0.0 0.0 -0.0 11.075 6.73684 -22.1797 15.9803 4.9841 -66.5345 1.33285 33.4333 -0.400312 -25.9143 1.59234 -2.87693 6.40504 -0.191397 -48.6802 0.0 0.0 0.0 28.9432 5.67914 -13.3228 -3.5446 0.129627 0.528454 -4.00495 -24.5573 0.705886 -13.6141 0.0 0.0 -0.0 0.0 -0.0 -18.7834 1.8049 -3.61103 -12.3059 -0.307963 -1.8598 40.2004 -9.84769 4.8929 -7.06719 0.0 0.0 0.0 0.0 0.0 
3145.38282459 654.33 -1664.66445872 -12.771738425 83.4123686049 16.2310582744 0.150622 0.316563 0.573304 0.150761 0.279441 0.592285 0.153791 0.150438 0.637381 0.15331 0.249211 0.605625 -2.89915 10.0564 6.07839 -2.75417 13.5332 7.74873 -0.0 0.0 -0.0 2.03834 24.7231 5.56852 -18.1217 2.19363 71.9808 0.560845 -15.5268 0.076462 -24.0588 -1.4364 2.69742 -0.932785 13.1818 -0.440234 -0.0 0.0 -0.0 11.0683 5.4022 -22.134 13.3492 3.41713 -66.9019 1.32751 33.3276 -0.397374 -22.8967 1.34174 -2.58247 6.62808 1.12958 -50.266 0.0 0.0 0.0 27.3747 6.40168 -13.531 -3.25658 0.120319 0.485232 -3.6989 -25.4536 0.658274 -13.0564 0.0 0.0 -0.0 0.0 -0.0 -18.968 2.41179 -2.90636 -16.1732 -0.321576 -2.45288 36.2938 -11.1856 4.54516 -4.14739 0.0 0.0 0.0 0.0 0.0 
3145.39276315 654.33 -1664.59698506 -13.0100090993 83.5315044076 16.4708837746 0.150622 0.316563 0.573304 0.150761 0.279441 0.592285 0.153791 0.150438 0.637381 0.15331 0.249211 0.605625 -2.89915 10.0564 6.07839 -2.75417 13.5332 7.74873 -0.0 0.0 -0.0 2.03834 24.7231 5.56852 -18.1217 2.19363 71.9808 0.560845 -15.5268 0.076462 -24.0588 -1.4364 2.69742 -0.932785 13.1818 -0.440234 -0.0 0.0 -0.0 11.0683 5.4022 -22.134 13.3492 3.41713 -66.9019 1.32751 33.3276 -0.397374 -22.8967 1.34174 -2.58247 6.62808 1.12958 -50.266 0.0 0.0 0.0 27.3747 6.40168 -13.531 -3.25658 0.120319 0.485232 -3.6989 -25.4536 0.658274 -13.0564 0.0 0.0 -0.0 0.0 -0.0 -18.968 2.41179 -2.90636 -16.1732 -0.321576 -2.45288 36.2938 -11.1856 4.54516 -4.14739 0.0 0.0 0.0 0.0 0.0 
3145.41141539 654.33 -1664.47295952 -13.4719265583 83.7502814732 16.9356600251 0.150622 0.316563 0.573304 0.150761 0.279441 0.592285 0.153791 0.150438 0.637381 0.15331 0.249211 0.605625 -2.89915 10.0564 6.07839 -2.75417 13.5332 7.74873 -0.0 0.0 -0.0 2.03834 24.7231 5.56852 -18.1217 2.19363 71.9808 0.560845 -15.5268 0.076462 -24.0588 -1.4364 2.69742 -0.932785 13.1818 -0.440234 -0.0 0.0 -0.0 11.0683 5.4022 -22.134 13.3492 3.41713 -66.9019 1.32751 33.3276 -0.397374 -22.8967 1.34174 -2.58247 6.62808 1.12958 -50.266 0.0 0.0 0.0 27.3747 6.40168 -13.531 -3.25658 0.120319 0.485232 -3.6989 -25.4536 0.658274 -13.0564 0.0 0.0 -0.0 0.0 -0.0 -18.968 2.41179 -2.90636 -16.1732 -0.321576 -2.45288 36.2938 -11.1856 4.54516 -4.14739 0.0 0.0 0.0 0.0 0.0 
3072.38662531 675.57 -1654.47680988 -4.15773225826 84.0423068256 7.76841968066 0.141459 0.328231 0.279974 0.141449 0.30975 0.300292 0.143116 0.240617 0.358084 0.143058 0.29415 0.315589 -7.27628 8.89877 4.76693 -7.2292 13.1424 6.58292 -0.0 0.0 -0.0 2.54478 23.9796 6.22201 -15.7063 -0.77139 69.9354 0.58787 -16.2364 0.0838578 -25.5927 -1.56489 2.84618 -0.538147 15.6042 3.04764 -0.0 0.0 -0.0 11.191 -2.08127 -21.9837 6.80926 -0.595416 -65.9321 1.25591 31.8861 -0.35879 -19.5465 1.0822 -2.24078 7.51734 6.26701 -56.7924 0.0 0.0 0.0 22.0406 8.32425 -11.8276 -6.93071 0.222691 1.0397 4.18444 -21.8073 -0.699606 -11.1631 0.0 0.0 -0.0 0.0 -0.0 -16.5039 1.17148 -2.14243 -25.0094 -0.202646 -3.8022 26.5507 -23.2604 3.66318 -1.09646 0.0 0.0 0.0 0.0 0.0 
3072.2615722 675.57 -1655.38872288 -3.83780294362 83.5444696859 7.44660708879 0.141459 0.328231 0.279974 0.141449 0.30975 0.300292 0.143116 0.240617 0.358084 0.143058 0.29415 0.315589 -7.27628 8.89877 4.76693 -7.2292 13.1424 6.58292 -0.0 0.0 -0.0 2.54478 23.9796 6.22201 -15.7063 -0.77139 69.9354 0.58787 -16.2364 0.0838578 -25.5927 -1.56489 2.84618 -0.538147 15.6042 3.04764 -0.0 0.0 -0.0 11.191 -2.08127 -21.9837 6.80926 -0.595416 -65.9321 1.25591 31.8861 -0.35879 -19.5465 1.0822 -2.24078 7.51734 6.26701 -56.7924 0.0 0.0 0.0 22.0406 8.32425 -11.8276 -6.93071 0.222691 1.0397 4.18444 -21.8073 -0.699606 -11.1631 0.0 0.0 -0.0 0.0 -0.0 -16.5039 1.17148 -2.14243 -25.0094 -0.202646 -3.8022 26.5507 -23.2604 3.66318 -1.09646 0.0 0.0 0.0 0.0 0.0 
3072.11336905 675.57 -1656.55530397 -3.49455694934 82.9081881665 7.10095367486 0.141459 0.328231 0.279974 0.141449 0.30975 0.300292 0.143116 0.240617 0.358084 0.143058 0.29415 0.315589 -7.27628 8.89877 4.76693 -7.2292 13.1424 6.58292 -0.0 0.0 -0.0 2.54478 23.9796 6.22201 -15.7063 -0.77139 69.9354 0.58787 -16.2364 0.0838578 -25.5927 -1.56489 2.84618 -0.538147 15.6042 3.04764 -0.0 0.0 -0.0 11.191 -2.08127 -21.9837 6.80926 -0.595416 -65.9321 1.25591 31.8861 -0.35879 -19.5465 1.0822 -2.24078 7.51734 6.26701 -56.7924 0.0 0.0 0.0 22.0406 8.32425 -11.8276 -6.93071 0.222691 1.0397 4.18444 -21.8073 -0.699606 -11.1631 0.0 0.0 -0.0 0.0 -0.0 -16.5039 1.17148 -2.14243 -25.0094 -0.202646 -3.8022 26.5507 -23.2604 3.66318 -1.09646 0.0 0.0 0.0 0.0 0.0 
3049.08931657 678.161 -1658.08130977 7.21100262341 81.886980831 -3.44769594086 0.209567 0.260005 0.24376 0.209567 0.243967 0.259811 0.210704 0.185036 0.304603 0.210649 0.23082 0.271558 -8.31775 9.55351 5.53698 -8.26961 13.9844 7.58541 -0.0 0.0 -0.0 1.75449 22.9902 5.09017 -10.5296 -2.91195 71.1327 0.49711 -13.8342 0.0603079 -26.2854 -1.62422 2.91223 -0.384673 16.0058 4.15943 -0.0 0.0 -0.0 11.2253 -3.60643 -21.9202 4.61801 -2.02136 -66.0766 1.17077 30.1111 -0.314932 -18.0155 0.970368 -2.07975 7.4556 7.30315 -55.2196 0.0 0.0 0.0 19.7415 9.42762 -11.5409 -7.27397 0.230434 1.09181 7.45664 -22.3319 -1.23875 -12.1868 0.0 0.0 -0.0 0.0 -0.0 -14.8078 0.289422 -1.70456 -30.6081 -0.0202964 -4.64173 22.5537 -26.9438 3.23768 -1.14122 0.0 0.0 0.0 0.0 0.0 
3025.8931802 680.798 -1662.34429352 5.57253558551 79.4400618277 -1.52417618849 0.2394 0.166965 0.132262 0.239396 0.158211 0.142618 0.239799 0.125424 0.172161 0.23979 0.151039 0.150192 -10.128 10.3476 5.97796 -10.1139 15.4812 8.40994 -0.0 0.0 -0.0 1.59827 22.2874 4.82897 -3.3362 -4.51875 72.3945 0.434038 -12.1346 0.0461351 -26.7343 -1.6631 2.95465 -0.344696 18.6573 5.47425 -0.0 0.0 -0.0 11.0752 -5.44114 -21.4343 3.02668 -3.13188 -66.2525 1.08947 28.3546 -0.275226 -15.568 0.800677 -1.81636 7.61731 7.48756 -56.9885 0.0 0.0 0.0 18.6439 10.1412 -11.2465 -7.67286 0.239039 1.15242 9.87261 -18.4082 -1.56581 -12.9811 0.0 0.0 -0.0 0.0 -0.0 -12.4829 -0.0759054 -2.2348 -36.2437 0.245248 -5.46526 23.7617 -27.9097 3.41455 -0.147371 0.0 0.0 0.0 0.0 0.0 
3001.77591654 691.845 -1665.4202954 9.35568632193 78.6841622501 -5.31497511512 0.238545 -0.00566914 0.115814 0.238552 -0.0130272 0.115219 0.238529 -0.0364946 0.11006 0.238512 -0.0186547 0.114442 -11.9028 10.661 6.50548 -11.9208 16.0341 9.23112 -0.0 0.0 -0.0 1.03884 22.6014 4.06803 1.68023 -6.1452 73.6639 0.416954 -11.6704 0.0426114 -27.1941 -1.70326 2.99779 -0.28596 19.9991 6.35936 -0.0 0.0 -0.0 11.128 -6.57243 -21.4174 0.164503 -4.35341 -66.5516 1.03097 27.0533 -0.248027 -15.2795 0.781423 -1.78485 7.69158 6.58248 -58.6941 0.0 0.0 0.0 16.1528 10.9732 -10.7512 -8.43805 0.254364 1.26884 11.702 -17.2453 -1.82416 -13.1076 0.0 0.0 -0.0 0.0 -0.0 -7.10116 -1.98536 -2.71754 -46.0053 0.892323 -6.81762 22.2435 -28.0414 3.22041 -0.0892848 0.0 0.0 0.0 0.0 0.0 
2983.6786936 689.678 -1670.27956481 6.6381324634 76.8736186242 -2.26858827743 0.434844 -0.0369169 -0.0804139 0.434847 -0.0317252 -0.0826 0.434895 -0.0143192 -0.0873167 0.434885 -0.0279295 -0.0839595 -13.0525 10.097 5.89232 -13.1118 15.5378 8.64246 -0.0 0.0 -0.0 -0.00871303 22.7715 2.62671 6.3678 -10.0275 76.1592 0.415043 -11.6183 0.0422258 -27.4825 -1.72862 3.02468 0.452253 18.1595 10.1376 -0.0 0.0 -0.0 10.8635 -8.65299 -20.6555 -0.683737 -4.83807 -66.4801 0.93314 24.8084 -0.20524 -21.1681 1.20532 -2.40805 7.78664 3.06922 -63.1419 0.0 0.0 0.0 14.7138 11.4082 -11.5724 -7.74053 0.240457 1.1627 13.8095 -20.0684 -2.18537 -13.614 0.0 0.0 -0.0 0.0 -0.0 -3.65707 -3.56358 -1.46567 -51.4228 1.34833 -7.51566 19.1346 -28.2095 2.80903 -2.58552 0.0 0.0 0.0 0.0 0.0 
